<mxfile host="app.diagrams.net" modified="2024-05-19T23:35:40.055Z" agent="Mozilla/5.0 (Windows NT 10.0; Win64; x64) AppleWebKit/537.36 (KHTML, like Gecko) Chrome/125.0.0.0 Safari/537.36" etag="0CmPa_aYK-4pOYQ-QNW4" version="24.4.4" type="github">
  <diagram name="Página-1" id="4YEw2bRor2QTOAI384sO">
    <mxGraphModel dx="880" dy="468" grid="1" gridSize="10" guides="1" tooltips="1" connect="1" arrows="1" fold="1" page="1" pageScale="1" pageWidth="827" pageHeight="1169" math="0" shadow="0">
      <root>
        <mxCell id="0" />
        <mxCell id="1" parent="0" />
        <mxCell id="S_MlMnfztfKtL2c3I-0J-2" style="edgeStyle=orthogonalEdgeStyle;rounded=0;orthogonalLoop=1;jettySize=auto;html=1;" edge="1" parent="1" source="S_MlMnfztfKtL2c3I-0J-1">
          <mxGeometry relative="1" as="geometry">
            <mxPoint x="520" y="30" as="targetPoint" />
          </mxGeometry>
        </mxCell>
        <mxCell id="S_MlMnfztfKtL2c3I-0J-4" style="edgeStyle=orthogonalEdgeStyle;rounded=0;orthogonalLoop=1;jettySize=auto;html=1;" edge="1" parent="1" source="S_MlMnfztfKtL2c3I-0J-1">
          <mxGeometry relative="1" as="geometry">
            <mxPoint x="414" y="120" as="targetPoint" />
          </mxGeometry>
        </mxCell>
        <mxCell id="S_MlMnfztfKtL2c3I-0J-1" value="&lt;b&gt;INICIO&lt;/b&gt;" style="rounded=1;whiteSpace=wrap;html=1;" vertex="1" parent="1">
          <mxGeometry x="354" width="120" height="60" as="geometry" />
        </mxCell>
        <mxCell id="S_MlMnfztfKtL2c3I-0J-3" value="inteiro &lt;b&gt;num1 &lt;/b&gt;= 0&lt;div&gt;inteiro &lt;b&gt;num2 &lt;/b&gt;= 0&lt;/div&gt;&lt;div&gt;inteiro &lt;b&gt;resto &lt;/b&gt;= 0&lt;/div&gt;" style="rounded=0;whiteSpace=wrap;html=1;" vertex="1" parent="1">
          <mxGeometry x="520" width="120" height="60" as="geometry" />
        </mxCell>
        <mxCell id="S_MlMnfztfKtL2c3I-0J-6" style="edgeStyle=orthogonalEdgeStyle;rounded=0;orthogonalLoop=1;jettySize=auto;html=1;" edge="1" parent="1" source="S_MlMnfztfKtL2c3I-0J-5">
          <mxGeometry relative="1" as="geometry">
            <mxPoint x="414" y="240" as="targetPoint" />
          </mxGeometry>
        </mxCell>
        <mxCell id="S_MlMnfztfKtL2c3I-0J-5" value="Insira dois números para nós verificarmos se eles são múltiplos:" style="rounded=0;whiteSpace=wrap;html=1;" vertex="1" parent="1">
          <mxGeometry x="354" y="120" width="120" height="60" as="geometry" />
        </mxCell>
        <mxCell id="S_MlMnfztfKtL2c3I-0J-8" style="edgeStyle=orthogonalEdgeStyle;rounded=0;orthogonalLoop=1;jettySize=auto;html=1;" edge="1" parent="1">
          <mxGeometry relative="1" as="geometry">
            <mxPoint x="240" y="280" as="targetPoint" />
            <mxPoint x="350" y="280" as="sourcePoint" />
          </mxGeometry>
        </mxCell>
        <mxCell id="S_MlMnfztfKtL2c3I-0J-9" style="edgeStyle=orthogonalEdgeStyle;rounded=0;orthogonalLoop=1;jettySize=auto;html=1;exitX=1;exitY=0.5;exitDx=0;exitDy=0;" edge="1" parent="1" source="S_MlMnfztfKtL2c3I-0J-7">
          <mxGeometry relative="1" as="geometry">
            <mxPoint x="580" y="280" as="targetPoint" />
            <mxPoint x="494" y="280" as="sourcePoint" />
          </mxGeometry>
        </mxCell>
        <mxCell id="S_MlMnfztfKtL2c3I-0J-7" value="&lt;b&gt;num1 &lt;/b&gt;&amp;lt;- entrada&lt;div&gt;&lt;b&gt;num2 &lt;/b&gt;&amp;lt;- entrada&lt;/div&gt;" style="rounded=0;whiteSpace=wrap;html=1;" vertex="1" parent="1">
          <mxGeometry x="354" y="250" width="120" height="60" as="geometry" />
        </mxCell>
        <mxCell id="S_MlMnfztfKtL2c3I-0J-12" style="edgeStyle=orthogonalEdgeStyle;rounded=0;orthogonalLoop=1;jettySize=auto;html=1;" edge="1" parent="1" source="S_MlMnfztfKtL2c3I-0J-10">
          <mxGeometry relative="1" as="geometry">
            <mxPoint x="180" y="360" as="targetPoint" />
          </mxGeometry>
        </mxCell>
        <mxCell id="S_MlMnfztfKtL2c3I-0J-10" value="se(num1&amp;gt;=num2)" style="rounded=0;whiteSpace=wrap;html=1;" vertex="1" parent="1">
          <mxGeometry x="120" y="250" width="120" height="60" as="geometry" />
        </mxCell>
        <mxCell id="S_MlMnfztfKtL2c3I-0J-13" style="edgeStyle=orthogonalEdgeStyle;rounded=0;orthogonalLoop=1;jettySize=auto;html=1;" edge="1" parent="1" source="S_MlMnfztfKtL2c3I-0J-11">
          <mxGeometry relative="1" as="geometry">
            <mxPoint x="640" y="360" as="targetPoint" />
          </mxGeometry>
        </mxCell>
        <mxCell id="S_MlMnfztfKtL2c3I-0J-11" value="se(num2&amp;gt;num1)" style="rounded=0;whiteSpace=wrap;html=1;" vertex="1" parent="1">
          <mxGeometry x="580" y="250" width="120" height="60" as="geometry" />
        </mxCell>
        <mxCell id="S_MlMnfztfKtL2c3I-0J-24" style="edgeStyle=orthogonalEdgeStyle;rounded=0;orthogonalLoop=1;jettySize=auto;html=1;" edge="1" parent="1" source="S_MlMnfztfKtL2c3I-0J-14">
          <mxGeometry relative="1" as="geometry">
            <mxPoint x="180" y="440" as="targetPoint" />
          </mxGeometry>
        </mxCell>
        <mxCell id="S_MlMnfztfKtL2c3I-0J-14" value="resto = num1% num2" style="ellipse;whiteSpace=wrap;html=1;" vertex="1" parent="1">
          <mxGeometry x="120" y="360" width="120" height="40" as="geometry" />
        </mxCell>
        <mxCell id="S_MlMnfztfKtL2c3I-0J-25" style="edgeStyle=orthogonalEdgeStyle;rounded=0;orthogonalLoop=1;jettySize=auto;html=1;" edge="1" parent="1" source="S_MlMnfztfKtL2c3I-0J-15">
          <mxGeometry relative="1" as="geometry">
            <mxPoint x="640" y="440" as="targetPoint" />
          </mxGeometry>
        </mxCell>
        <mxCell id="S_MlMnfztfKtL2c3I-0J-15" value="resto = num2 % num1" style="ellipse;whiteSpace=wrap;html=1;" vertex="1" parent="1">
          <mxGeometry x="575" y="360" width="130" height="40" as="geometry" />
        </mxCell>
        <mxCell id="S_MlMnfztfKtL2c3I-0J-29" style="edgeStyle=orthogonalEdgeStyle;rounded=0;orthogonalLoop=1;jettySize=auto;html=1;" edge="1" parent="1" source="S_MlMnfztfKtL2c3I-0J-26">
          <mxGeometry relative="1" as="geometry">
            <mxPoint x="340" y="490" as="targetPoint" />
          </mxGeometry>
        </mxCell>
        <mxCell id="S_MlMnfztfKtL2c3I-0J-26" value="se (resto==0){&lt;div&gt;esses números são múltiplos um do outro}&lt;/div&gt;&lt;div&gt;senao{&lt;/div&gt;&lt;div&gt;esses números não são multiplos}&lt;/div&gt;" style="rounded=0;whiteSpace=wrap;html=1;" vertex="1" parent="1">
          <mxGeometry x="110" y="440" width="140" height="100" as="geometry" />
        </mxCell>
        <mxCell id="S_MlMnfztfKtL2c3I-0J-30" style="edgeStyle=orthogonalEdgeStyle;rounded=0;orthogonalLoop=1;jettySize=auto;html=1;" edge="1" parent="1" source="S_MlMnfztfKtL2c3I-0J-28">
          <mxGeometry relative="1" as="geometry">
            <mxPoint x="480" y="490" as="targetPoint" />
          </mxGeometry>
        </mxCell>
        <mxCell id="S_MlMnfztfKtL2c3I-0J-28" value="se (resto==0){&lt;div&gt;esses números são múltiplos um do outro}&lt;/div&gt;&lt;div&gt;senao{&lt;/div&gt;&lt;div&gt;esses números não são multiplos}&lt;/div&gt;" style="rounded=0;whiteSpace=wrap;html=1;" vertex="1" parent="1">
          <mxGeometry x="570" y="440" width="140" height="100" as="geometry" />
        </mxCell>
        <mxCell id="S_MlMnfztfKtL2c3I-0J-31" value="&lt;b&gt;FIM&lt;/b&gt;" style="rounded=1;whiteSpace=wrap;html=1;" vertex="1" parent="1">
          <mxGeometry x="353.5" y="460" width="120" height="60" as="geometry" />
        </mxCell>
        <mxCell id="S_MlMnfztfKtL2c3I-0J-32" value="&lt;font style=&quot;font-size: 20px;&quot;&gt;&lt;b&gt;NÚMEROS&lt;/b&gt;&lt;/font&gt;&lt;div&gt;&lt;font style=&quot;font-size: 20px;&quot;&gt;&lt;b&gt;MÚLTIPLOS&lt;/b&gt;&lt;/font&gt;&lt;/div&gt;" style="text;html=1;align=center;verticalAlign=middle;resizable=0;points=[];autosize=1;strokeColor=none;fillColor=none;labelBorderColor=default;" vertex="1" parent="1">
          <mxGeometry x="100" y="10" width="140" height="60" as="geometry" />
        </mxCell>
      </root>
    </mxGraphModel>
  </diagram>
</mxfile>
